<svg width="108" height="115" viewBox="0 0 108 115" fill="none" xmlns="http://www.w3.org/2000/svg">
<path d="M46.9828 8C58.7771 8 66.619 13.8794 75.7792 22.6697C84.9395 31.46 86.3348 32.771 91.2383 37.599C97.9447 44.2021 102.113 53.4374 102.113 63.66C102.113 83.73 86.0526 100 66.2419 100C49.5079 99.9998 34.0403 82.52 24.8675 72.9525C15.6947 63.3851 11.1128 55.9568 11.1128 44.34C11.1128 24.2701 27.1723 8.00022 46.9828 8Z" fill="white"/>
<path d="M48.4561 84.345C59.6752 94.5823 77.069 93.7864 87.3063 82.5673C97.5436 71.3482 96.7477 53.9543 85.5286 43.7171L64.544 22.6544C53.3249 12.4171 35.931 13.213 25.6937 24.4321C15.4565 35.6513 16.2524 53.0451 27.4715 63.2824L48.4561 84.345Z" fill="#90FF08"/>
<path d="M36.047 34.3581C25.7041 45.4799 26.3354 62.8805 37.4572 73.2234L48.4239 84.3878C59.5457 94.7307 76.9462 94.0994 87.2892 82.9776C97.6321 71.8558 97.0008 54.4553 85.879 44.1123L74.9123 32.9479C63.7905 22.605 46.3899 23.2364 36.047 34.3581Z" fill="#0E4AFF"/>
<circle cx="67.5" cy="64.5" r="27.5" fill="#FF6936"/>
</svg>
